<svg xmlns="http://www.w3.org/2000/svg" viewBox="-445.01 -12 1080.55 634"><!-- generated by tools/render_cube_art.py — do not edit --><g transform="matrix(0.86603 0.5 -0.86603 0.5 0 0)"><g id="board"><rect x="0" y="0" width="720" height="500" fill="#ffffff" /><g id="grid"><rect x="80" y="105" width="62" height="62" fill="#ffffff" stroke="#c1c7cd" stroke-width="0.35" rx="1" stroke-dasharray="2,2" /><rect x="150" y="105" width="62" height="62" fill="#ffffff" stroke="#c1c7cd" stroke-width="0.35" rx="1" stroke-dasharray="2,2" /><rect x="220" y="105" width="62" height="62" fill="#ffffff" stroke="#c1c7cd" stroke-width="0.35" rx="1" stroke-dasharray="2,2" /><rect x="290" y="105" width="62" height="62" fill="#ffffff" stroke="#c1c7cd" stroke-width="0.35" rx="1" stroke-dasharray="2,2" /><rect x="360" y="105" width="62" height="62" fill="#ffffff" stroke="#c1c7cd" stroke-width="0.35" rx="1" stroke-dasharray="2,2" /><rect x="430" y="105" width="62" height="62" fill="#ffffff" stroke="#c1c7cd" stroke-width="0.35" rx="1" stroke-dasharray="2,2" /><rect x="500" y="105" width="62" height="62" fill="#ffffff" stroke="#c1c7cd" stroke-width="0.35" rx="1" stroke-dasharray="2,2" /><rect x="570" y="105" width="62" height="62" fill="#ffffff" stroke="#c1c7cd" stroke-width="0.35" rx="1" stroke-dasharray="2,2" /><rect x="80" y="175" width="62" height="62" fill="#ffffff" stroke="#c1c7cd" stroke-width="0.35" rx="1" stroke-dasharray="2,2" /><rect x="150" y="175" width="62" height="62" fill="#ffffff" stroke="#c1c7cd" stroke-width="0.35" rx="1" stroke-dasharray="2,2" /><rect x="220" y="175" width="62" height="62" fill="#ffffff" stroke="#c1c7cd" stroke-width="0.35" rx="1" stroke-dasharray="2,2" /><rect x="290" y="175" width="62" height="62" fill="#ffffff" stroke="#c1c7cd" stroke-width="0.35" rx="1" stroke-dasharray="2,2" /><rect x="360" y="175" width="62" height="62" fill="#ffffff" stroke="#c1c7cd" stroke-width="0.35" rx="1" stroke-dasharray="2,2" /><rect x="430" y="175" width="62" height="62" fill="#ffffff" stroke="#c1c7cd" stroke-width="0.35" rx="1" stroke-dasharray="2,2" /><rect x="500" y="175" width="62" height="62" fill="#ffffff" stroke="#c1c7cd" stroke-width="0.35" rx="1" stroke-dasharray="2,2" /><rect x="570" y="175" width="62" height="62" fill="#ffffff" stroke="#c1c7cd" stroke-width="0.35" rx="1" stroke-dasharray="2,2" /><rect x="80" y="245" width="62" height="62" fill="#ffffff" stroke="#c1c7cd" stroke-width="0.35" rx="1" stroke-dasharray="2,2" /><rect x="150" y="245" width="62" height="62" fill="#ffffff" stroke="#c1c7cd" stroke-width="0.35" rx="1" stroke-dasharray="2,2" /><rect x="220" y="245" width="62" height="62" fill="#ffffff" stroke="#c1c7cd" stroke-width="0.35" rx="1" stroke-dasharray="2,2" /><rect x="290" y="245" width="62" height="62" fill="#ffffff" stroke="#c1c7cd" stroke-width="0.35" rx="1" stroke-dasharray="2,2" /><rect x="360" y="245" width="62" height="62" fill="#ffffff" stroke="#c1c7cd" stroke-width="0.35" rx="1" stroke-dasharray="2,2" /><rect x="430" y="245" width="62" height="62" fill="#ffffff" stroke="#c1c7cd" stroke-width="0.35" rx="1" stroke-dasharray="2,2" /><rect x="500" y="245" width="62" height="62" fill="#ffffff" stroke="#c1c7cd" stroke-width="0.35" rx="1" stroke-dasharray="2,2" /><rect x="570" y="245" width="62" height="62" fill="#ffffff" stroke="#c1c7cd" stroke-width="0.35" rx="1" stroke-dasharray="2,2" /><rect x="80" y="315" width="62" height="62" fill="#ffffff" stroke="#c1c7cd" stroke-width="0.35" rx="1" stroke-dasharray="2,2" /><rect x="150" y="315" width="62" height="62" fill="#ffffff" stroke="#c1c7cd" stroke-width="0.35" rx="1" stroke-dasharray="2,2" /><rect x="220" y="315" width="62" height="62" fill="#ffffff" stroke="#c1c7cd" stroke-width="0.35" rx="1" stroke-dasharray="2,2" /><rect x="290" y="315" width="62" height="62" fill="#ffffff" stroke="#c1c7cd" stroke-width="0.35" rx="1" stroke-dasharray="2,2" /><rect x="360" y="315" width="62" height="62" fill="#ffffff" stroke="#c1c7cd" stroke-width="0.35" rx="1" stroke-dasharray="2,2" /><rect x="430" y="315" width="62" height="62" fill="#ffffff" stroke="#c1c7cd" stroke-width="0.35" rx="1" stroke-dasharray="2,2" /><rect x="500" y="315" width="62" height="62" fill="#ffffff" stroke="#c1c7cd" stroke-width="0.35" rx="1" stroke-dasharray="2,2" /><rect x="570" y="315" width="62" height="62" fill="#ffffff" stroke="#c1c7cd" stroke-width="0.35" rx="1" stroke-dasharray="2,2" /><rect x="80" y="385" width="62" height="62" fill="#ffffff" stroke="#c1c7cd" stroke-width="0.35" rx="1" stroke-dasharray="2,2" /><rect x="150" y="385" width="62" height="62" fill="#ffffff" stroke="#c1c7cd" stroke-width="0.35" rx="1" stroke-dasharray="2,2" /><rect x="220" y="385" width="62" height="62" fill="#ffffff" stroke="#c1c7cd" stroke-width="0.35" rx="1" stroke-dasharray="2,2" /><rect x="290" y="385" width="62" height="62" fill="#ffffff" stroke="#c1c7cd" stroke-width="0.35" rx="1" stroke-dasharray="2,2" /><rect x="360" y="385" width="62" height="62" fill="#ffffff" stroke="#c1c7cd" stroke-width="0.35" rx="1" stroke-dasharray="2,2" /><rect x="430" y="385" width="62" height="62" fill="#ffffff" stroke="#c1c7cd" stroke-width="0.35" rx="1" stroke-dasharray="2,2" /><rect x="500" y="385" width="62" height="62" fill="#ffffff" stroke="#c1c7cd" stroke-width="0.35" rx="1" stroke-dasharray="2,2" /><rect x="570" y="385" width="62" height="62" fill="#ffffff" stroke="#c1c7cd" stroke-width="0.35" rx="1" stroke-dasharray="2,2" /></g><g id="wires"><line x1="80" y1="136" x2="632" y2="136" stroke="#8d8d8d" stroke-width="1.2" stroke-linecap="butt" /><line x1="80" y1="206" x2="632" y2="206" stroke="#8d8d8d" stroke-width="1.2" stroke-linecap="butt" /><line x1="80" y1="276" x2="632" y2="276" stroke="#8d8d8d" stroke-width="1.2" stroke-linecap="butt" /><line x1="80" y1="346" x2="632" y2="346" stroke="#8d8d8d" stroke-width="1.2" stroke-linecap="butt" /><line x1="80" y1="416" x2="632" y2="416" stroke="#8d8d8d" stroke-width="1.2" stroke-linecap="butt" /></g><g id="labels"><line x1="58.636" y1="131.4" x2="58.636" y2="140.6" stroke="#525252" stroke-width="0.828" stroke-linecap="round" /><ellipse cx="64.57" cy="136" rx="2.76" ry="4.416" fill="none" stroke="#525252" stroke-width="0.828" /><polyline points="70.09,131.4 73.586,136 70.09,140.6" fill="none" stroke="#525252" stroke-width="0.828" stroke-linecap="round" stroke-linejoin="round" /><text x="53.722" y="136" font-family="'IBM Plex Sans', Helvetica, Arial, sans-serif" font-size="13.8889" font-weight="bold" fill="#525252" text-anchor="end" dominant-baseline="central">q0</text><line x1="58.636" y1="201.4" x2="58.636" y2="210.6" stroke="#525252" stroke-width="0.828" stroke-linecap="round" /><ellipse cx="64.57" cy="206" rx="2.76" ry="4.416" fill="none" stroke="#525252" stroke-width="0.828" /><polyline points="70.09,201.4 73.586,206 70.09,210.6" fill="none" stroke="#525252" stroke-width="0.828" stroke-linecap="round" stroke-linejoin="round" /><text x="53.722" y="206" font-family="'IBM Plex Sans', Helvetica, Arial, sans-serif" font-size="13.8889" font-weight="bold" fill="#525252" text-anchor="end" dominant-baseline="central">q1</text><line x1="58.636" y1="271.4" x2="58.636" y2="280.6" stroke="#525252" stroke-width="0.828" stroke-linecap="round" /><ellipse cx="64.57" cy="276" rx="2.76" ry="4.416" fill="none" stroke="#525252" stroke-width="0.828" /><polyline points="70.09,271.4 73.586,276 70.09,280.6" fill="none" stroke="#525252" stroke-width="0.828" stroke-linecap="round" stroke-linejoin="round" /><text x="53.722" y="276" font-family="'IBM Plex Sans', Helvetica, Arial, sans-serif" font-size="13.8889" font-weight="bold" fill="#525252" text-anchor="end" dominant-baseline="central">q2</text><line x1="58.636" y1="341.4" x2="58.636" y2="350.6" stroke="#525252" stroke-width="0.828" stroke-linecap="round" /><ellipse cx="64.57" cy="346" rx="2.76" ry="4.416" fill="none" stroke="#525252" stroke-width="0.828" /><polyline points="70.09,341.4 73.586,346 70.09,350.6" fill="none" stroke="#525252" stroke-width="0.828" stroke-linecap="round" stroke-linejoin="round" /><text x="53.722" y="346" font-family="'IBM Plex Sans', Helvetica, Arial, sans-serif" font-size="13.8889" font-weight="bold" fill="#525252" text-anchor="end" dominant-baseline="central">q3</text><line x1="58.636" y1="411.4" x2="58.636" y2="420.6" stroke="#525252" stroke-width="0.828" stroke-linecap="round" /><ellipse cx="64.57" cy="416" rx="2.76" ry="4.416" fill="none" stroke="#525252" stroke-width="0.828" /><polyline points="70.09,411.4 73.586,416 70.09,420.6" fill="none" stroke="#525252" stroke-width="0.828" stroke-linecap="round" stroke-linejoin="round" /><text x="53.722" y="416" font-family="'IBM Plex Sans', Helvetica, Arial, sans-serif" font-size="13.8889" font-weight="bold" fill="#525252" text-anchor="end" dominant-baseline="central">q4</text><text x="111" y="98" font-family="'IBM Plex Sans', Helvetica, Arial, sans-serif" font-size="6.9444" font-weight="normal" fill="#a8a8a8" text-anchor="middle" dominant-baseline="central">1</text><text x="181" y="98" font-family="'IBM Plex Sans', Helvetica, Arial, sans-serif" font-size="6.9444" font-weight="normal" fill="#a8a8a8" text-anchor="middle" dominant-baseline="central">2</text><text x="251" y="98" font-family="'IBM Plex Sans', Helvetica, Arial, sans-serif" font-size="6.9444" font-weight="normal" fill="#a8a8a8" text-anchor="middle" dominant-baseline="central">3</text><text x="321" y="98" font-family="'IBM Plex Sans', Helvetica, Arial, sans-serif" font-size="6.9444" font-weight="normal" fill="#a8a8a8" text-anchor="middle" dominant-baseline="central">4</text><text x="391" y="98" font-family="'IBM Plex Sans', Helvetica, Arial, sans-serif" font-size="6.9444" font-weight="normal" fill="#a8a8a8" text-anchor="middle" dominant-baseline="central">5</text><text x="461" y="98" font-family="'IBM Plex Sans', Helvetica, Arial, sans-serif" font-size="6.9444" font-weight="normal" fill="#a8a8a8" text-anchor="middle" dominant-baseline="central">6</text><text x="531" y="98" font-family="'IBM Plex Sans', Helvetica, Arial, sans-serif" font-size="6.9444" font-weight="normal" fill="#a8a8a8" text-anchor="middle" dominant-baseline="central">7</text><text x="601" y="98" font-family="'IBM Plex Sans', Helvetica, Arial, sans-serif" font-size="6.9444" font-weight="normal" fill="#a8a8a8" text-anchor="middle" dominant-baseline="central">8</text></g><g id="header"><text x="360" y="28" font-family="'IBM Plex Sans', Helvetica, Arial, sans-serif" font-size="33.3333" font-weight="bold" fill="#161616" text-anchor="middle" dominant-baseline="central">Entangible</text><text x="360" y="48" font-family="'IBM Plex Sans', Helvetica, Arial, sans-serif" font-size="5" font-weight="normal" fill="#525252" text-anchor="middle" dominant-baseline="central">the QAMPoser physical quantum circuit composer</text></g><g id="footer"><circle cx="303.968" cy="466.5" r="1.8" fill="#002d9c" /><line x1="305.768" y1="466.5" x2="310.768" y2="466.5" stroke="#002d9c" stroke-width="0.6" stroke-linecap="butt" /><circle cx="312.568" cy="466.5" r="1.8" fill="none" stroke="#002d9c" stroke-width="0.432" /><line x1="310.768" y1="466.5" x2="314.368" y2="466.5" stroke="#002d9c" stroke-width="0.432" stroke-linecap="butt" /><line x1="312.568" y1="464.7" x2="312.568" y2="468.3" stroke="#002d9c" stroke-width="0.432" stroke-linecap="butt" /><text x="317.368" y="466.5" font-family="'IBM Plex Sans', Helvetica, Arial, sans-serif" font-size="4.6" font-weight="normal" fill="#525252" text-anchor="start" dominant-baseline="central">placed in the same column link into a CNOT</text><text x="360" y="475.5" font-family="'IBM Plex Sans', Helvetica, Arial, sans-serif" font-size="4" font-weight="normal" fill="#a8a8a8" text-anchor="middle" dominant-baseline="central">entangible.org   ·   qamposer.org   ·   rasqberry.org</text></g><g id="corners"><g id="corner-TL" shape-rendering="crispEdges"><rect x="8" y="8" width="40" height="40" fill="#ffffff" /><rect x="8" y="8" width="40" height="6.6667" fill="#000000" /><rect x="8" y="14.6667" width="6.6667" height="6.6667" fill="#000000" /><rect x="21.3333" y="14.6667" width="6.6667" height="6.6667" fill="#000000" /><rect x="41.3333" y="14.6667" width="6.6667" height="6.6667" fill="#000000" /><rect x="8" y="21.3333" width="13.3333" height="6.6667" fill="#000000" /><rect x="28" y="21.3333" width="6.6667" height="6.6667" fill="#000000" /><rect x="41.3333" y="21.3333" width="6.6667" height="6.6667" fill="#000000" /><rect x="8" y="28" width="20" height="6.6667" fill="#000000" /><rect x="41.3333" y="28" width="6.6667" height="6.6667" fill="#000000" /><rect x="8" y="34.6667" width="20" height="6.6667" fill="#000000" /><rect x="34.6667" y="34.6667" width="13.3333" height="6.6667" fill="#000000" /><rect x="8" y="41.3333" width="40" height="6.6667" fill="#000000" /></g><g id="corner-TR" shape-rendering="crispEdges"><rect x="672" y="8" width="40" height="40" fill="#ffffff" /><rect x="672" y="8" width="40" height="6.6667" fill="#000000" /><rect x="672" y="14.6667" width="40" height="6.6667" fill="#000000" /><rect x="672" y="21.3333" width="6.6667" height="6.6667" fill="#000000" /><rect x="705.3333" y="21.3333" width="6.6667" height="6.6667" fill="#000000" /><rect x="672" y="28" width="6.6667" height="6.6667" fill="#000000" /><rect x="685.3333" y="28" width="13.3333" height="6.6667" fill="#000000" /><rect x="705.3333" y="28" width="6.6667" height="6.6667" fill="#000000" /><rect x="672" y="34.6667" width="6.6667" height="6.6667" fill="#000000" /><rect x="685.3333" y="34.6667" width="6.6667" height="6.6667" fill="#000000" /><rect x="698.6667" y="34.6667" width="13.3333" height="6.6667" fill="#000000" /><rect x="672" y="41.3333" width="40" height="6.6667" fill="#000000" /></g><g id="corner-BR" shape-rendering="crispEdges"><rect x="672" y="452" width="40" height="40" fill="#ffffff" /><rect x="672" y="452" width="40" height="6.6667" fill="#000000" /><rect x="672" y="458.6667" width="20" height="6.6667" fill="#000000" /><rect x="705.3333" y="458.6667" width="6.6667" height="6.6667" fill="#000000" /><rect x="672" y="465.3333" width="20" height="6.6667" fill="#000000" /><rect x="705.3333" y="465.3333" width="6.6667" height="6.6667" fill="#000000" /><rect x="672" y="472" width="20" height="6.6667" fill="#000000" /><rect x="698.6667" y="472" width="13.3333" height="6.6667" fill="#000000" /><rect x="672" y="478.6667" width="6.6667" height="6.6667" fill="#000000" /><rect x="692" y="478.6667" width="6.6667" height="6.6667" fill="#000000" /><rect x="705.3333" y="478.6667" width="6.6667" height="6.6667" fill="#000000" /><rect x="672" y="485.3333" width="40" height="6.6667" fill="#000000" /></g><g id="corner-BL" shape-rendering="crispEdges"><rect x="8" y="452" width="40" height="40" fill="#ffffff" /><rect x="8" y="452" width="40" height="6.6667" fill="#000000" /><rect x="8" y="458.6667" width="6.6667" height="6.6667" fill="#000000" /><rect x="21.3333" y="458.6667" width="13.3333" height="6.6667" fill="#000000" /><rect x="41.3333" y="458.6667" width="6.6667" height="6.6667" fill="#000000" /><rect x="8" y="465.3333" width="6.6667" height="6.6667" fill="#000000" /><rect x="21.3333" y="465.3333" width="13.3333" height="6.6667" fill="#000000" /><rect x="41.3333" y="465.3333" width="6.6667" height="6.6667" fill="#000000" /><rect x="8" y="472" width="13.3333" height="6.6667" fill="#000000" /><rect x="28" y="472" width="20" height="6.6667" fill="#000000" /><rect x="8" y="478.6667" width="13.3333" height="6.6667" fill="#000000" /><rect x="34.6667" y="478.6667" width="13.3333" height="6.6667" fill="#000000" /><rect x="8" y="485.3333" width="40" height="6.6667" fill="#000000" /></g></g></g></g><polygon points="-21.65,97.5 30.31,127.5 -21.65,157.5 -73.61,127.5" fill="#0f1117" fill-opacity="0.12"/><polygon points="30.31,64.3 -21.65,94.3 -21.65,153.5 30.31,123.5" fill="#e9ebf0"/><polygon points="-73.61,64.3 -21.65,94.3 -21.65,153.5 -73.61,123.5" fill="#d8dbe2"/><polygon points="30.31,63.5 -21.65,93.5 -21.65,94.3 30.31,64.3" fill="#d44149"/><polygon points="-73.61,63.5 -21.65,93.5 -21.65,94.3 -73.61,64.3" fill="#af353c"/><g transform="matrix(0.86603 0.5 -0.86603 0.5 -21.65 33.5)"><g id="tile-10"><g id="outline"><rect x="0" y="0" width="60" height="60" fill="#fa4d56" rx="4" /><rect x="2.5" y="2.5" width="55" height="48.5" fill="#ffffff" rx="1.5" /></g><g id="marker" shape-rendering="crispEdges"><rect x="12" y="9" width="36" height="6" fill="#000000" /><rect x="12" y="15" width="6" height="6" fill="#000000" /><rect x="42" y="15" width="6" height="6" fill="#000000" /><rect x="12" y="21" width="6" height="6" fill="#000000" /><rect x="24" y="21" width="12" height="6" fill="#000000" /><rect x="42" y="21" width="6" height="6" fill="#000000" /><rect x="12" y="27" width="6" height="6" fill="#000000" /><rect x="24" y="27" width="12" height="6" fill="#000000" /><rect x="42" y="27" width="6" height="6" fill="#000000" /><rect x="12" y="33" width="24" height="6" fill="#000000" /><rect x="42" y="33" width="6" height="6" fill="#000000" /><rect x="12" y="39" width="36" height="6" fill="#000000" /></g><g id="symbol"><text x="30" y="55.5" font-family="'IBM Plex Sans', Helvetica, Arial, sans-serif" font-size="8.3333" font-weight="bold" fill="#ffffff" text-anchor="middle" dominant-baseline="central">H</text></g></g></g><polygon points="38.97,132.5 90.93,162.5 38.97,192.5 -12.99,162.5" fill="#0f1117" fill-opacity="0.12"/><polygon points="90.93,99.3 38.97,129.3 38.97,188.5 90.93,158.5" fill="#e9ebf0"/><polygon points="-12.99,99.3 38.97,129.3 38.97,188.5 -12.99,158.5" fill="#d8dbe2"/><polygon points="90.93,98.5 38.97,128.5 38.97,129.3 90.93,99.3" fill="#002684"/><polygon points="-12.99,98.5 38.97,128.5 38.97,129.3 -12.99,99.3" fill="#001f6d"/><g transform="matrix(0.86603 0.5 -0.86603 0.5 38.97 68.5)"><g id="tile-14"><g id="outline"><rect x="0" y="0" width="60" height="60" fill="#002d9c" rx="4" /><rect x="2.5" y="2.5" width="55" height="48.5" fill="#ffffff" rx="1.5" /></g><g id="marker" shape-rendering="crispEdges"><rect x="12" y="9" width="36" height="6" fill="#000000" /><rect x="12" y="15" width="18" height="6" fill="#000000" /><rect x="36" y="15" width="12" height="6" fill="#000000" /><rect x="12" y="21" width="12" height="6" fill="#000000" /><rect x="30" y="21" width="18" height="6" fill="#000000" /><rect x="12" y="27" width="6" height="6" fill="#000000" /><rect x="24" y="27" width="6" height="6" fill="#000000" /><rect x="42" y="27" width="6" height="6" fill="#000000" /><rect x="12" y="33" width="24" height="6" fill="#000000" /><rect x="42" y="33" width="6" height="6" fill="#000000" /><rect x="12" y="39" width="36" height="6" fill="#000000" /></g><g id="symbol"><circle cx="15.6" cy="55.5" r="2.7" fill="#ffffff" /><text x="36" y="55.5" font-family="'IBM Plex Sans', Helvetica, Arial, sans-serif" font-size="6" font-weight="bold" fill="#ffffff" text-anchor="middle" dominant-baseline="central" letter-spacing="0.36">CONTROL</text></g></g></g><polygon points="-21.65,167.5 30.31,197.5 -21.65,227.5 -73.61,197.5" fill="#0f1117" fill-opacity="0.12"/><polygon points="30.31,134.3 -21.65,164.3 -21.65,223.5 30.31,193.5" fill="#e9ebf0"/><polygon points="-73.61,134.3 -21.65,164.3 -21.65,223.5 -73.61,193.5" fill="#d8dbe2"/><polygon points="30.31,133.5 -21.65,163.5 -21.65,164.3 30.31,134.3" fill="#002684"/><polygon points="-73.61,133.5 -21.65,163.5 -21.65,164.3 -73.61,134.3" fill="#001f6d"/><g transform="matrix(0.86603 0.5 -0.86603 0.5 -21.65 103.5)"><g id="tile-15"><g id="outline"><rect x="0" y="0" width="60" height="60" fill="#002d9c" rx="4" /><rect x="2.5" y="2.5" width="55" height="48.5" fill="#ffffff" rx="1.5" /></g><g id="marker" shape-rendering="crispEdges"><rect x="12" y="9" width="36" height="6" fill="#000000" /><rect x="12" y="15" width="18" height="6" fill="#000000" /><rect x="36" y="15" width="12" height="6" fill="#000000" /><rect x="12" y="21" width="12" height="6" fill="#000000" /><rect x="36" y="21" width="12" height="6" fill="#000000" /><rect x="12" y="27" width="18" height="6" fill="#000000" /><rect x="42" y="27" width="6" height="6" fill="#000000" /><rect x="12" y="33" width="6" height="6" fill="#000000" /><rect x="36" y="33" width="12" height="6" fill="#000000" /><rect x="12" y="39" width="36" height="6" fill="#000000" /></g><g id="symbol"><circle cx="15.6" cy="55.5" r="2.7" fill="none" stroke="#ffffff" stroke-width="0.648" /><line x1="12.9" y1="55.5" x2="18.3" y2="55.5" stroke="#ffffff" stroke-width="0.648" stroke-linecap="butt" /><line x1="15.6" y1="52.8" x2="15.6" y2="58.2" stroke="#ffffff" stroke-width="0.648" stroke-linecap="butt" /><text x="36" y="55.5" font-family="'IBM Plex Sans', Helvetica, Arial, sans-serif" font-size="6" font-weight="bold" fill="#ffffff" text-anchor="middle" dominant-baseline="central" letter-spacing="0.36">TARGET</text></g></g></g></svg>