<svg xmlns="http://www.w3.org/2000/svg" viewBox="-134.71 -49 451.28 329"><!-- generated by tools/render_cube_art.py — do not edit --><polygon points="88.33,-8.2 36.37,21.8 36.37,81 88.33,51" fill="#e9ebf0"/><polygon points="-15.59,-8.2 36.37,21.8 36.37,81 -15.59,51" fill="#d8dbe2"/><polygon points="88.33,-9 36.37,21 36.37,21.8 88.33,-8.2" fill="#d44149"/><polygon points="-15.59,-9 36.37,21 36.37,21.8 -15.59,-8.2" fill="#af353c"/><g transform="matrix(0.86603 0.5 -0.86603 0.5 36.37 -39)"><g id="tile-10"><g id="outline"><rect x="0" y="0" width="60" height="60" fill="#fa4d56" rx="4" /><rect x="2.5" y="2.5" width="55" height="48.5" fill="#ffffff" rx="1.5" /></g><g id="marker" shape-rendering="crispEdges"><rect x="12" y="9" width="36" height="6" fill="#000000" /><rect x="12" y="15" width="6" height="6" fill="#000000" /><rect x="42" y="15" width="6" height="6" fill="#000000" /><rect x="12" y="21" width="6" height="6" fill="#000000" /><rect x="24" y="21" width="12" height="6" fill="#000000" /><rect x="42" y="21" width="6" height="6" fill="#000000" /><rect x="12" y="27" width="6" height="6" fill="#000000" /><rect x="24" y="27" width="12" height="6" fill="#000000" /><rect x="42" y="27" width="6" height="6" fill="#000000" /><rect x="12" y="33" width="24" height="6" fill="#000000" /><rect x="42" y="33" width="6" height="6" fill="#000000" /><rect x="12" y="39" width="36" height="6" fill="#000000" /></g><g id="symbol"><text x="30" y="55.5" font-family="'IBM Plex Sans', Helvetica, Arial, sans-serif" font-size="8.3333" font-weight="bold" fill="#ffffff" text-anchor="middle" dominant-baseline="central">H</text></g></g></g><polygon points="-20.78,12.8 -72.75,42.8 -72.75,102 -20.78,72" fill="#e9ebf0"/><polygon points="-124.71,12.8 -72.75,42.8 -72.75,102 -124.71,72" fill="#d8dbe2"/><polygon points="-20.78,12 -72.75,42 -72.75,42.8 -20.78,12.8" fill="#002684"/><polygon points="-124.71,12 -72.75,42 -72.75,42.8 -124.71,12.8" fill="#001f6d"/><g transform="matrix(0.86603 0.5 -0.86603 0.5 -72.75 -18)"><g id="tile-14"><g id="outline"><rect x="0" y="0" width="60" height="60" fill="#002d9c" rx="4" /><rect x="2.5" y="2.5" width="55" height="48.5" fill="#ffffff" rx="1.5" /></g><g id="marker" shape-rendering="crispEdges"><rect x="12" y="9" width="36" height="6" fill="#000000" /><rect x="12" y="15" width="18" height="6" fill="#000000" /><rect x="36" y="15" width="12" height="6" fill="#000000" /><rect x="12" y="21" width="12" height="6" fill="#000000" /><rect x="30" y="21" width="18" height="6" fill="#000000" /><rect x="12" y="27" width="6" height="6" fill="#000000" /><rect x="24" y="27" width="6" height="6" fill="#000000" /><rect x="42" y="27" width="6" height="6" fill="#000000" /><rect x="12" y="33" width="24" height="6" fill="#000000" /><rect x="42" y="33" width="6" height="6" fill="#000000" /><rect x="12" y="39" width="36" height="6" fill="#000000" /></g><g id="symbol"><circle cx="15.6" cy="55.5" r="2.7" fill="#ffffff" /><text x="36" y="55.5" font-family="'IBM Plex Sans', Helvetica, Arial, sans-serif" font-size="6" font-weight="bold" fill="#ffffff" text-anchor="middle" dominant-baseline="central" letter-spacing="0.36">CONTROL</text></g></g></g><polygon points="161.08,33.8 109.12,63.8 109.12,123 161.08,93" fill="#e9ebf0"/><polygon points="57.16,33.8 109.12,63.8 109.12,123 57.16,93" fill="#d8dbe2"/><polygon points="161.08,33 109.12,63 109.12,63.8 161.08,33.8" fill="#002684"/><polygon points="57.16,33 109.12,63 109.12,63.8 57.16,33.8" fill="#001f6d"/><g transform="matrix(0.86603 0.5 -0.86603 0.5 109.12 3)"><g id="tile-11"><g id="outline"><rect x="0" y="0" width="60" height="60" fill="#002d9c" rx="4" /><rect x="2.5" y="2.5" width="55" height="48.5" fill="#ffffff" rx="1.5" /></g><g id="marker" shape-rendering="crispEdges"><rect x="12" y="9" width="36" height="6" fill="#000000" /><rect x="12" y="15" width="24" height="6" fill="#000000" /><rect x="42" y="15" width="6" height="6" fill="#000000" /><rect x="12" y="21" width="24" height="6" fill="#000000" /><rect x="42" y="21" width="6" height="6" fill="#000000" /><rect x="12" y="27" width="6" height="6" fill="#000000" /><rect x="24" y="27" width="6" height="6" fill="#000000" /><rect x="36" y="27" width="12" height="6" fill="#000000" /><rect x="12" y="33" width="12" height="6" fill="#000000" /><rect x="42" y="33" width="6" height="6" fill="#000000" /><rect x="12" y="39" width="36" height="6" fill="#000000" /></g><g id="symbol"><text x="30" y="55.5" font-family="'IBM Plex Sans', Helvetica, Arial, sans-serif" font-size="8.3333" font-weight="bold" fill="#ffffff" text-anchor="middle" dominant-baseline="central">X</text></g></g></g><polygon points="51.96,54.8 0,84.8 0,144 51.96,114" fill="#e9ebf0"/><polygon points="-51.96,54.8 0,84.8 0,144 -51.96,114" fill="#d8dbe2"/><polygon points="51.96,54 0,84 0,84.8 51.96,54.8" fill="#002684"/><polygon points="-51.96,54 0,84 0,84.8 -51.96,54.8" fill="#001f6d"/><g transform="matrix(0.86603 0.5 -0.86603 0.5 0 24)"><g id="tile-15"><g id="outline"><rect x="0" y="0" width="60" height="60" fill="#002d9c" rx="4" /><rect x="2.5" y="2.5" width="55" height="48.5" fill="#ffffff" rx="1.5" /></g><g id="marker" shape-rendering="crispEdges"><rect x="12" y="9" width="36" height="6" fill="#000000" /><rect x="12" y="15" width="18" height="6" fill="#000000" /><rect x="36" y="15" width="12" height="6" fill="#000000" /><rect x="12" y="21" width="12" height="6" fill="#000000" /><rect x="36" y="21" width="12" height="6" fill="#000000" /><rect x="12" y="27" width="18" height="6" fill="#000000" /><rect x="42" y="27" width="6" height="6" fill="#000000" /><rect x="12" y="33" width="6" height="6" fill="#000000" /><rect x="36" y="33" width="12" height="6" fill="#000000" /><rect x="12" y="39" width="36" height="6" fill="#000000" /></g><g id="symbol"><circle cx="15.6" cy="55.5" r="2.7" fill="none" stroke="#ffffff" stroke-width="0.648" /><line x1="12.9" y1="55.5" x2="18.3" y2="55.5" stroke="#ffffff" stroke-width="0.648" stroke-linecap="butt" /><line x1="15.6" y1="52.8" x2="15.6" y2="58.2" stroke="#ffffff" stroke-width="0.648" stroke-linecap="butt" /><text x="36" y="55.5" font-family="'IBM Plex Sans', Helvetica, Arial, sans-serif" font-size="6" font-weight="bold" fill="#ffffff" text-anchor="middle" dominant-baseline="central" letter-spacing="0.36">TARGET</text></g></g></g><polygon points="233.83,75.8 181.87,105.8 181.87,165 233.83,135" fill="#e9ebf0"/><polygon points="129.9,75.8 181.87,105.8 181.87,165 129.9,135" fill="#d8dbe2"/><polygon points="233.83,75 181.87,105 181.87,105.8 233.83,75.8" fill="#871446"/><polygon points="129.9,75 181.87,105 181.87,105.8 129.9,75.8" fill="#6f103a"/><g transform="matrix(0.86603 0.5 -0.86603 0.5 181.87 45)"><g id="tile-12"><g id="outline"><rect x="0" y="0" width="60" height="60" fill="#9f1853" rx="4" /><rect x="2.5" y="2.5" width="55" height="48.5" fill="#ffffff" rx="1.5" /></g><g id="marker" shape-rendering="crispEdges"><rect x="12" y="9" width="36" height="6" fill="#000000" /><rect x="12" y="15" width="36" height="6" fill="#000000" /><rect x="12" y="21" width="6" height="6" fill="#000000" /><rect x="36" y="21" width="12" height="6" fill="#000000" /><rect x="12" y="27" width="6" height="6" fill="#000000" /><rect x="24" y="27" width="6" height="6" fill="#000000" /><rect x="42" y="27" width="6" height="6" fill="#000000" /><rect x="12" y="33" width="12" height="6" fill="#000000" /><rect x="42" y="33" width="6" height="6" fill="#000000" /><rect x="12" y="39" width="36" height="6" fill="#000000" /></g><g id="symbol"><text x="30" y="55.5" font-family="'IBM Plex Sans', Helvetica, Arial, sans-serif" font-size="8.3333" font-weight="bold" fill="#ffffff" text-anchor="middle" dominant-baseline="central">Y</text></g></g></g><polygon points="124.71,96.8 72.75,126.8 72.75,186 124.71,156" fill="#e9ebf0"/><polygon points="20.78,96.8 72.75,126.8 72.75,186 20.78,156" fill="#d8dbe2"/><polygon points="124.71,96 72.75,126 72.75,126.8 124.71,96.8" fill="#871446"/><polygon points="20.78,96 72.75,126 72.75,126.8 20.78,96.8" fill="#6f103a"/><g transform="matrix(0.86603 0.5 -0.86603 0.5 72.75 66)"><g id="tile-21"><g id="outline"><rect x="0" y="0" width="60" height="60" fill="#9f1853" rx="4" /><rect x="2.5" y="2.5" width="55" height="48.5" fill="#ffffff" rx="1.5" /></g><g id="marker" shape-rendering="crispEdges"><rect x="12" y="9" width="36" height="6" fill="#000000" /><rect x="12" y="15" width="6" height="6" fill="#000000" /><rect x="24" y="15" width="6" height="6" fill="#000000" /><rect x="42" y="15" width="6" height="6" fill="#000000" /><rect x="12" y="21" width="36" height="6" fill="#000000" /><rect x="12" y="27" width="18" height="6" fill="#000000" /><rect x="36" y="27" width="12" height="6" fill="#000000" /><rect x="12" y="33" width="6" height="6" fill="#000000" /><rect x="24" y="33" width="6" height="6" fill="#000000" /><rect x="42" y="33" width="6" height="6" fill="#000000" /><rect x="12" y="39" width="36" height="6" fill="#000000" /></g><g id="symbol"><text x="30" y="55.5" font-family="'IBM Plex Sans', Helvetica, Arial, sans-serif" font-size="8.3333" font-weight="bold" fill="#ffffff" text-anchor="middle" dominant-baseline="central">RX π/2</text></g></g></g><polygon points="306.57,117.8 254.61,147.8 254.61,207 306.57,177" fill="#e9ebf0"/><polygon points="202.65,117.8 254.61,147.8 254.61,207 202.65,177" fill="#d8dbe2"/><polygon points="306.57,117 254.61,147 254.61,147.8 306.57,117.8" fill="#2b96d8"/><polygon points="202.65,117 254.61,147 254.61,147.8 202.65,117.8" fill="#237bb2"/><g transform="matrix(0.86603 0.5 -0.86603 0.5 254.61 87)"><g id="tile-13"><g id="outline"><rect x="0" y="0" width="60" height="60" fill="#33b1ff" rx="4" /><rect x="2.5" y="2.5" width="55" height="48.5" fill="#ffffff" rx="1.5" /></g><g id="marker" shape-rendering="crispEdges"><rect x="12" y="9" width="36" height="6" fill="#000000" /><rect x="12" y="15" width="18" height="6" fill="#000000" /><rect x="36" y="15" width="12" height="6" fill="#000000" /><rect x="12" y="21" width="6" height="6" fill="#000000" /><rect x="24" y="21" width="6" height="6" fill="#000000" /><rect x="36" y="21" width="12" height="6" fill="#000000" /><rect x="12" y="27" width="36" height="6" fill="#000000" /><rect x="12" y="33" width="6" height="6" fill="#000000" /><rect x="42" y="33" width="6" height="6" fill="#000000" /><rect x="12" y="39" width="36" height="6" fill="#000000" /></g><g id="symbol"><text x="30" y="55.5" font-family="'IBM Plex Sans', Helvetica, Arial, sans-serif" font-size="8.3333" font-weight="bold" fill="#ffffff" text-anchor="middle" dominant-baseline="central">Z</text></g></g></g><polygon points="197.45,138.8 145.49,168.8 145.49,228 197.45,198" fill="#e9ebf0"/><polygon points="93.53,138.8 145.49,168.8 145.49,228 93.53,198" fill="#d8dbe2"/><polygon points="197.45,138 145.49,168 145.49,168.8 197.45,138.8" fill="#2b96d8"/><polygon points="93.53,138 145.49,168 145.49,168.8 93.53,138.8" fill="#237bb2"/><g transform="matrix(0.86603 0.5 -0.86603 0.5 145.49 108)"><g id="tile-40"><g id="outline"><rect x="0" y="0" width="60" height="60" fill="#33b1ff" rx="4" /><rect x="2.5" y="2.5" width="55" height="48.5" fill="#ffffff" rx="1.5" /></g><g id="marker" shape-rendering="crispEdges"><rect x="12" y="9" width="36" height="6" fill="#000000" /><rect x="12" y="15" width="24" height="6" fill="#000000" /><rect x="42" y="15" width="6" height="6" fill="#000000" /><rect x="12" y="21" width="12" height="6" fill="#000000" /><rect x="42" y="21" width="6" height="6" fill="#000000" /><rect x="12" y="27" width="24" height="6" fill="#000000" /><rect x="42" y="27" width="6" height="6" fill="#000000" /><rect x="12" y="33" width="6" height="6" fill="#000000" /><rect x="24" y="33" width="24" height="6" fill="#000000" /><rect x="12" y="39" width="36" height="6" fill="#000000" /></g><g id="symbol"><text x="30" y="55.5" font-family="'IBM Plex Sans', Helvetica, Arial, sans-serif" font-size="8.3333" font-weight="bold" fill="#ffffff" text-anchor="middle" dominant-baseline="central">S</text></g></g></g><polygon points="270.2,180.8 218.24,210.8 218.24,270 270.2,240" fill="#e9ebf0"/><polygon points="166.28,180.8 218.24,210.8 218.24,270 166.28,240" fill="#d8dbe2"/><polygon points="270.2,180 218.24,210 218.24,210.8 270.2,180.8" fill="#2b96d8"/><polygon points="166.28,180 218.24,210 218.24,210.8 166.28,180.8" fill="#237bb2"/><g transform="matrix(0.86603 0.5 -0.86603 0.5 218.24 150)"><g id="tile-41"><g id="outline"><rect x="0" y="0" width="60" height="60" fill="#33b1ff" rx="4" /><rect x="2.5" y="2.5" width="55" height="48.5" fill="#ffffff" rx="1.5" /></g><g id="marker" shape-rendering="crispEdges"><rect x="12" y="9" width="36" height="6" fill="#000000" /><rect x="12" y="15" width="18" height="6" fill="#000000" /><rect x="36" y="15" width="12" height="6" fill="#000000" /><rect x="12" y="21" width="6" height="6" fill="#000000" /><rect x="24" y="21" width="6" height="6" fill="#000000" /><rect x="36" y="21" width="12" height="6" fill="#000000" /><rect x="12" y="27" width="18" height="6" fill="#000000" /><rect x="36" y="27" width="12" height="6" fill="#000000" /><rect x="12" y="33" width="6" height="6" fill="#000000" /><rect x="24" y="33" width="24" height="6" fill="#000000" /><rect x="12" y="39" width="36" height="6" fill="#000000" /></g><g id="symbol"><text x="30" y="55.5" font-family="'IBM Plex Sans', Helvetica, Arial, sans-serif" font-size="8.3333" font-weight="bold" fill="#ffffff" text-anchor="middle" dominant-baseline="central">T</text></g></g></g></svg>